<svg width="130" height="116" viewBox="0 0 130 116" fill="none" xmlns="http://www.w3.org/2000/svg">
<path d="M107.754 31.6748C109.174 31.3729 110.151 33.0651 109.18 34.1443L82.9322 63.295L64.8024 83.4302L38.555 112.581C37.5833 113.66 35.7982 112.865 35.95 111.421L39.9364 73.493C40.0043 72.8471 39.6485 72.231 39.0552 71.9668L4.21546 56.4551C2.88875 55.8644 3.09301 53.9212 4.51353 53.6192L42.8824 45.4637L69.3848 39.8302L107.754 31.6748Z" fill="#075985"/>
<path d="M54.9725 48.9979H59.3044V53.3299H54.9725V48.9979ZM59.3044 48.9979H63.6364V53.3299H59.3044V48.9979ZM63.6364 53.3299H67.9684V57.6618H63.6364V53.3299ZM50.6405 53.3299H54.9725V57.6618H50.6405V53.3299ZM50.6405 57.6618H54.9725V61.9938H50.6405V57.6618ZM50.6405 61.9938H54.9725V66.3258H50.6405V61.9938ZM50.6405 66.3258H54.9725V70.6577H50.6405V66.3258ZM46.3085 70.6577H50.6405V74.9897H46.3085V70.6577ZM54.9725 70.6577H59.3044V74.9897H54.9725V70.6577ZM59.3044 70.6577H63.6364V74.9897H59.3044V70.6577ZM63.6364 66.3258H67.9684V70.6577H63.6364V66.3258Z" fill="white"/>
</svg>
